<svg width="86" height="86" viewBox="0 0 86 86" fill="none" xmlns="http://www.w3.org/2000/svg">
<rect width="86" height="86" rx="5" fill="#F4FCFA"/>
<path d="M53.0513 55.1567H32.5669M21.5669 55.1354H18.8734C18.6451 55.1355 18.4259 55.0377 18.2626 54.8631C18.0993 54.6884 18.0051 54.4507 18 54.2009V24.9557C18 24.7023 18.092 24.4592 18.2558 24.2799C18.4196 24.1007 18.6418 24 18.8734 24H48.7637C48.9919 24.0056 49.2091 24.1087 49.3687 24.2873C49.5284 24.466 49.6177 24.7059 49.6177 24.9557V29.9255V34.6192V55.5" stroke="#3C9E8D" stroke-width="1.5" stroke-miterlimit="10"/>
<circle cx="6.5" cy="6.5" r="5.75" transform="matrix(-1 0 0 1 33.0669 50)" stroke="#F2B602" stroke-width="1.5"/>
<path d="M64.0669 55H66.5669C66.843 55 67.0669 54.7761 67.0669 54.5V43.7309C67.0669 43.5844 67.0026 43.4453 66.8911 43.3503L53.707 32.1194C53.6166 32.0423 53.5016 32 53.3828 32H49.0669" stroke="#3C9E8D" stroke-width="1.5"/>
<circle cx="6.5" cy="6.5" r="5.75" transform="matrix(-1 0 0 1 65.0669 50)" stroke="#F2B602" stroke-width="1.5"/>
</svg>
