<svg width="86" height="86" viewBox="0 0 86 86" fill="none" xmlns="http://www.w3.org/2000/svg">
<rect width="86" height="86" rx="5" fill="#F4FCFA"/>
<path d="M51.717 24H58.0077C58.1382 24 58.2674 24.0259 58.388 24.0762C58.5086 24.1266 58.6181 24.2004 58.7102 24.2933C58.8024 24.3863 58.8755 24.4967 58.9252 24.6181C58.9749 24.7396 59.0003 24.8697 59 25.001V63.0015C59.0003 63.1327 58.9749 63.2627 58.9251 63.384C58.8754 63.5053 58.8023 63.6155 58.7101 63.7083C58.6179 63.8011 58.5084 63.8746 58.3878 63.9247C58.2673 63.9747 58.1381 64.0003 58.0077 64H26.9923C26.7291 64 26.4767 63.8948 26.2906 63.7076C26.1045 63.5203 26 63.2663 26 63.0015V25.001C26 24.7355 26.1048 24.4809 26.2914 24.2932C26.478 24.1055 26.731 24 26.9949 24H33.1488" stroke="#3C9E8D" stroke-width="1.5" stroke-miterlimit="10"/>
<path d="M51.7202 23.689V25.5894H33V23.689C33 23.2978 33.1658 22.9226 33.4609 22.646C33.7561 22.3693 34.1564 22.2139 34.5737 22.2139H37.5895C37.5895 20.4395 39.7283 19 42.3614 19C44.9944 19 47.1308 20.4395 47.1308 22.2139H50.1465C50.5639 22.2139 50.9642 22.3693 51.2593 22.646C51.5544 22.9226 51.7202 23.2978 51.7202 23.689V23.689Z" stroke="#F2B602" stroke-width="1.5" stroke-miterlimit="10"/>
<path d="M32 45H53" stroke="#3C9E8D" stroke-width="1.5" stroke-miterlimit="10" stroke-linecap="round"/>
<path d="M32 54H53" stroke="#3C9E8D" stroke-width="1.5" stroke-miterlimit="10" stroke-linecap="round"/>
<path d="M33 36H45" stroke="#3C9E8D" stroke-width="1.5" stroke-miterlimit="10" stroke-linecap="round"/>
</svg>
