<svg width="86" height="86" viewBox="0 0 86 86" fill="none" xmlns="http://www.w3.org/2000/svg">
<rect width="86" height="86" rx="5" fill="#F4FCFA"/>
<path d="M55.0868 56.3244C54.8581 57.0105 54.4008 57.4678 53.9434 57.9252C49.8273 62.7273 42.2812 63.4133 37.479 59.2972L21.0147 45.1195C15.9839 41.2321 15.5265 33.6859 19.6426 28.8838C23.7587 23.853 31.0762 23.3957 36.107 27.5118L49.5987 38.7167" stroke="#3C9E8D" stroke-width="1.5" stroke-miterlimit="10"/>
<path d="M44.566 34.6023C41.3645 41.9198 35.4191 47.8653 28.1016 51.0667" stroke="#3C9E8D" stroke-width="1.5" stroke-miterlimit="10"/>
<path d="M58.0544 56.5534C64.1164 56.5534 69.0306 51.6391 69.0306 45.5771C69.0306 39.5151 64.1164 34.6008 58.0544 34.6008C51.9924 34.6008 47.0781 39.5151 47.0781 45.5771C47.0781 51.6391 51.9924 56.5534 58.0544 56.5534Z" stroke="#F2B602" stroke-width="1.5" stroke-miterlimit="10"/>
<path d="M47.0781 45.5767H69.0306" stroke="#F2B602" stroke-width="1.5" stroke-miterlimit="10"/>
</svg>
