<svg width="108" height="45" viewBox="0 0 108 45" fill="none" xmlns="http://www.w3.org/2000/svg">
<g style="mix-blend-mode:luminosity">
<path d="M20.0968 27.3923H0.000976562V45.0001H20.0968V27.3923Z" fill="#00B67A"/>
<path d="M41.8703 27.3914H21.7744V44.9992H41.8703V27.3914Z" fill="#00B67A"/>
<path d="M63.6388 27.3914H43.543V44.9992H63.6388V27.3914Z" fill="#00B67A"/>
<path d="M85.4098 27.3914H65.314V44.9992H85.4098V27.3914Z" fill="#00B67A"/>
<path d="M107.179 27.3914H87.083V44.9992H107.179V27.3914Z" fill="#00B67A"/>
<path d="M10.0497 39.2567L13.1059 38.5781L14.3828 42.0262L10.0497 39.2567ZM17.0832 34.7997H11.7034L10.0497 30.3611L8.39594 34.7997H3.01611L7.37022 37.5509L5.71649 41.9896L10.0706 39.2383L12.75 37.5509L17.0832 34.7997Z" fill="white"/>
<path d="M31.8192 39.2567L34.8754 38.5781L36.1524 42.0262L31.8192 39.2567ZM38.8527 34.7997H33.4729L31.8192 30.3611L30.1655 34.7997H24.7856L29.1397 37.5509L27.486 41.9896L31.8401 39.2383L34.5196 37.5509L38.8527 34.7997Z" fill="white"/>
<path d="M53.5887 39.2572L56.645 38.5785L57.9219 42.0267L53.5887 39.2572ZM60.6223 34.8002H55.2424L53.5887 30.3616L51.935 34.8002H46.5552L50.9093 37.5514L49.2556 41.9901L53.6097 39.2388L56.2891 37.5514L60.6223 34.8002Z" fill="white"/>
<path d="M75.3631 39.2572L78.4194 38.5785L79.6963 42.0267L75.3631 39.2572ZM82.3967 34.8002H77.0169L75.3631 30.3616L73.7094 34.8002H68.3296L72.6837 37.5514L71.03 41.9901L75.3841 39.2388L78.0635 37.5514L82.3967 34.8002Z" fill="white"/>
<path d="M97.1322 39.2567L100.188 38.5781L101.465 42.0262L97.1322 39.2567ZM104.166 34.7997H98.7859L97.1322 30.3611L95.4785 34.7997H90.0986L94.4527 37.5509L92.799 41.9896L97.1531 39.2383L99.8326 37.5509L104.166 34.7997Z" fill="white"/>
<path d="M25.0014 8.20435H34.4976V9.98489H30.7637V19.9942H28.7105V9.98489H24.9932V8.20435H25.0014ZM34.0919 11.4576H35.8471V13.105H35.8802C35.9381 12.872 36.0458 12.6474 36.2031 12.4311C36.3604 12.2147 36.5508 12.0067 36.7743 11.832C36.9979 11.649 37.2462 11.5075 37.5195 11.391C37.7927 11.2829 38.0742 11.2246 38.3556 11.2246C38.5709 11.2246 38.7282 11.2329 38.811 11.2413C38.8938 11.2496 38.9766 11.2662 39.0677 11.2745V13.0884C38.9352 13.0634 38.8027 13.0468 38.662 13.0301C38.5212 13.0135 38.3888 13.0052 38.2563 13.0052C37.9417 13.0052 37.6436 13.0717 37.3622 13.1965C37.0807 13.3213 36.8406 13.5127 36.6336 13.754C36.4266 14.0036 36.261 14.3031 36.1368 14.6692C36.0127 15.0353 35.9547 15.4513 35.9547 15.9256V19.9859H34.0836V11.4576H34.0919ZM47.6696 19.9942H45.8317V18.8044H45.7986C45.5668 19.2371 45.2273 19.5782 44.772 19.8361C44.3166 20.0941 43.853 20.2272 43.3811 20.2272C42.2634 20.2272 41.452 19.9526 40.9553 19.3952C40.4585 18.8377 40.2102 17.9974 40.2102 16.8741V11.4576H42.0812V16.6911C42.0812 17.4399 42.222 17.9724 42.5118 18.2802C42.7933 18.5881 43.1989 18.7462 43.7122 18.7462C44.1096 18.7462 44.4325 18.6879 44.6974 18.5631C44.9624 18.4383 45.1776 18.2802 45.3349 18.0722C45.5005 17.8726 45.6164 17.6229 45.6909 17.3401C45.7655 17.0572 45.7986 16.7493 45.7986 16.4165V11.4659H47.6696V19.9942ZM50.8571 17.2569C50.9151 17.806 51.122 18.1887 51.478 18.4134C51.8423 18.6297 52.2728 18.7462 52.7779 18.7462C52.9517 18.7462 53.1504 18.7295 53.374 18.7046C53.5975 18.6796 53.8127 18.6214 54.0032 18.5465C54.2019 18.4716 54.3592 18.3551 54.4916 18.2054C54.6158 18.0556 54.6738 17.8642 54.6655 17.6229C54.6572 17.3817 54.5661 17.182 54.4006 17.0322C54.235 16.8741 54.028 16.7576 53.7714 16.6578C53.5147 16.5663 53.2249 16.4831 52.8938 16.4165C52.5626 16.3499 52.2314 16.2751 51.892 16.2002C51.5443 16.1253 51.2048 16.0254 50.8819 15.9173C50.5591 15.8091 50.2693 15.6593 50.0126 15.468C49.756 15.2849 49.549 15.0436 49.4 14.7524C49.2427 14.4612 49.1682 14.1035 49.1682 13.6708C49.1682 13.2049 49.2841 12.8221 49.5076 12.5059C49.7311 12.1898 50.0209 11.9402 50.3604 11.7488C50.7081 11.5574 51.0889 11.4243 51.5112 11.3411C51.9334 11.2662 52.3391 11.2246 52.7199 11.2246C53.1587 11.2246 53.5809 11.2745 53.9783 11.3661C54.3757 11.4576 54.74 11.6074 55.0629 11.8237C55.3858 12.0317 55.6507 12.3063 55.866 12.6391C56.0812 12.9719 56.2137 13.3796 56.2716 13.8538H54.3178C54.2267 13.4045 54.028 13.0967 53.7051 12.9469C53.3822 12.7888 53.0097 12.714 52.5957 12.714C52.4633 12.714 52.306 12.7223 52.1238 12.7472C51.9417 12.7722 51.7761 12.8138 51.6105 12.872C51.4532 12.9303 51.3207 13.0218 51.2048 13.1383C51.0972 13.2548 51.0392 13.4045 51.0392 13.5959C51.0392 13.8289 51.122 14.0119 51.2793 14.1534C51.4366 14.2948 51.6436 14.4113 51.9003 14.5111C52.1569 14.6027 52.4467 14.6859 52.7779 14.7524C53.109 14.819 53.4485 14.8939 53.7962 14.9688C54.1356 15.0436 54.4668 15.1435 54.798 15.2517C55.1291 15.3598 55.4189 15.5096 55.6756 15.701C55.9322 15.8923 56.1392 16.1253 56.2965 16.4082C56.4538 16.6911 56.5366 17.0488 56.5366 17.4649C56.5366 17.9724 56.4207 18.3967 56.1889 18.7545C55.957 19.104 55.659 19.3952 55.2947 19.6115C54.9304 19.8278 54.5165 19.9942 54.0694 20.0941C53.6223 20.1939 53.1753 20.2438 52.7365 20.2438C52.1983 20.2438 51.7016 20.1856 51.2462 20.0608C50.7909 19.936 50.3935 19.7529 50.0623 19.5117C49.7311 19.262 49.4662 18.9542 49.2758 18.5881C49.0854 18.222 48.986 17.781 48.9695 17.2735H50.8571V17.2569ZM57.0333 11.4576H58.4491V8.89493H60.3201V11.4576H62.0091V12.8637H60.3201V17.4233C60.3201 17.6229 60.3284 17.7894 60.345 17.9391C60.3615 18.0806 60.4029 18.2054 60.4609 18.3052C60.5188 18.4051 60.6099 18.4799 60.7341 18.5299C60.8583 18.5798 61.0156 18.6047 61.2308 18.6047C61.3633 18.6047 61.4958 18.6047 61.6282 18.5964C61.7607 18.5881 61.8932 18.5715 62.0256 18.5382V19.9942C61.8187 20.0192 61.6117 20.0358 61.4212 20.0608C61.2226 20.0858 61.0239 20.0941 60.8169 20.0941C60.3201 20.0941 59.9227 20.0442 59.6247 19.9526C59.3266 19.8611 59.0865 19.7197 58.921 19.5366C58.7471 19.3536 58.6395 19.1289 58.5732 18.8544C58.5153 18.5798 58.4739 18.2636 58.4656 17.9142V12.8804H57.0499V11.4576H57.0333ZM63.3337 11.4576H65.1055V12.6141H65.1386C65.4035 12.1149 65.7678 11.7654 66.2397 11.5491C66.7116 11.3328 67.2166 11.2246 67.7713 11.2246C68.4419 11.2246 69.0215 11.3411 69.5182 11.5824C70.015 11.8154 70.4289 12.1399 70.7601 12.5559C71.0913 12.9719 71.3313 13.4545 71.4969 14.0036C71.6625 14.5527 71.7453 15.1435 71.7453 15.7675C71.7453 16.3416 71.6708 16.8991 71.5218 17.4316C71.3727 17.9724 71.1492 18.4467 70.8512 18.8627C70.5531 19.2787 70.1723 19.6032 69.7086 19.8528C69.245 20.1024 68.7069 20.2272 68.0777 20.2272C67.8045 20.2272 67.5312 20.2022 67.258 20.1523C66.9848 20.1024 66.7199 20.0192 66.4715 19.911C66.2231 19.8029 65.983 19.6614 65.7761 19.4867C65.5608 19.312 65.3869 19.1123 65.2379 18.8876H65.2048V23.1476H63.3337V11.4576ZM69.8742 15.7342C69.8742 15.3515 69.8246 14.9771 69.7252 14.611C69.6259 14.2449 69.4768 13.9287 69.2781 13.6458C69.0794 13.3629 68.8311 13.1383 68.5413 12.9719C68.2432 12.8055 67.9038 12.714 67.523 12.714C66.7364 12.714 66.1403 12.9885 65.7429 13.5377C65.3456 14.0868 65.1469 14.819 65.1469 15.7342C65.1469 16.1669 65.1965 16.5663 65.3042 16.9324C65.4118 17.2985 65.5608 17.6146 65.7761 17.8809C65.983 18.1471 66.2314 18.3551 66.5212 18.5049C66.811 18.663 67.1504 18.7379 67.5312 18.7379C67.9618 18.7379 68.3178 18.6463 68.6158 18.4716C68.9139 18.2969 69.1539 18.0639 69.3444 17.7894C69.5348 17.5065 69.6755 17.1903 69.7583 16.8325C69.8328 16.4747 69.8742 16.1086 69.8742 15.7342ZM73.1776 8.20435H75.0487V9.98489H73.1776V8.20435ZM73.1776 11.4576H75.0487V19.9942H73.1776V11.4576ZM76.7211 8.20435H78.5921V19.9942H76.7211V8.20435ZM84.3296 20.2272C83.6507 20.2272 83.0463 20.1107 82.5164 19.8861C81.9866 19.6614 81.5395 19.3453 81.1669 18.9542C80.8027 18.5548 80.5212 18.0806 80.3307 17.5314C80.1403 16.9823 80.041 16.3749 80.041 15.7176C80.041 15.0686 80.1403 14.4695 80.3307 13.9204C80.5212 13.3713 80.8027 12.897 81.1669 12.4976C81.5312 12.0983 81.9866 11.7904 82.5164 11.5658C83.0463 11.3411 83.6507 11.2246 84.3296 11.2246C85.0084 11.2246 85.6128 11.3411 86.1427 11.5658C86.6725 11.7904 87.1196 12.1066 87.4922 12.4976C87.8565 12.897 88.1379 13.3713 88.3284 13.9204C88.5188 14.4695 88.6181 15.0686 88.6181 15.7176C88.6181 16.3749 88.5188 16.9823 88.3284 17.5314C88.1379 18.0806 87.8565 18.5548 87.4922 18.9542C87.1279 19.3536 86.6725 19.6614 86.1427 19.8861C85.6128 20.1107 85.0084 20.2272 84.3296 20.2272ZM84.3296 18.7379C84.7435 18.7379 85.1078 18.6463 85.4141 18.4716C85.7204 18.2969 85.9688 18.0639 86.1675 17.781C86.3662 17.4981 86.507 17.1736 86.6063 16.8159C86.6974 16.4581 86.7471 16.092 86.7471 15.7176C86.7471 15.3515 86.6974 14.9937 86.6063 14.6276C86.5152 14.2615 86.3662 13.9454 86.1675 13.6625C85.9688 13.3796 85.7204 13.1549 85.4141 12.9802C85.1078 12.8055 84.7435 12.714 84.3296 12.714C83.9156 12.714 83.5513 12.8055 83.245 12.9802C82.9387 13.1549 82.6903 13.3879 82.4916 13.6625C82.2929 13.9454 82.1521 14.2615 82.0528 14.6276C81.9617 14.9937 81.9121 15.3515 81.9121 15.7176C81.9121 16.092 81.9617 16.4581 82.0528 16.8159C82.1439 17.1736 82.2929 17.4981 82.4916 17.781C82.6903 18.0639 82.9387 18.2969 83.245 18.4716C83.5513 18.6547 83.9156 18.7379 84.3296 18.7379ZM89.1646 11.4576H90.5803V8.89493H92.4514V11.4576H94.1403V12.8637H92.4514V17.4233C92.4514 17.6229 92.4596 17.7894 92.4762 17.9391C92.4928 18.0806 92.5342 18.2054 92.5921 18.3052C92.6501 18.4051 92.7411 18.4799 92.8653 18.5299C92.9895 18.5798 93.1468 18.6047 93.3621 18.6047C93.4945 18.6047 93.627 18.6047 93.7595 18.5964C93.8919 18.5881 94.0244 18.5715 94.1569 18.5382V19.9942C93.9499 20.0192 93.7429 20.0358 93.5525 20.0608C93.3538 20.0858 93.1551 20.0941 92.9481 20.0941C92.4514 20.0941 92.054 20.0442 91.7559 19.9526C91.4579 19.8611 91.2178 19.7197 91.0522 19.5366C90.8783 19.3536 90.7707 19.1289 90.7045 18.8544C90.6465 18.5798 90.6051 18.2636 90.5968 17.9142V12.8804H89.1811V11.4576H89.1646Z" fill="black"/>
<path d="M22.4612 8.20383H13.8841L11.2348 0L8.57716 8.20383L0 8.19551L6.94617 13.2709L4.28858 21.4664L11.2348 16.3993L18.1726 21.4664L15.5233 13.2709L22.4612 8.20383Z" fill="#00B67A"/>
<path d="M16.1195 15.1274L15.5234 13.272L11.2349 16.4004L16.1195 15.1274Z" fill="#005128"/>
</g>
</svg>
