<svg width="139" height="31" viewBox="0 0 139 31" fill="none" xmlns="http://www.w3.org/2000/svg">
<path d="M44.7943 18.9317C44.7943 18.2724 44.5204 17.7704 43.9728 17.4256C43.4352 17.0807 42.5376 16.7764 41.28 16.5127C40.0223 16.249 38.9726 15.9143 38.1308 15.5086C36.2849 14.6161 35.3619 13.323 35.3619 11.6292C35.3619 10.2093 35.9603 9.02261 37.1571 8.06923C38.3539 7.11585 39.8752 6.63916 41.7212 6.63916C43.6888 6.63916 45.276 7.12599 46.483 8.09966C47.7001 9.07332 48.3086 10.336 48.3086 11.8878H44.6117C44.6117 11.1779 44.348 10.5896 43.8206 10.1231C43.2932 9.64637 42.5934 9.40802 41.7212 9.40802C40.9098 9.40802 40.2454 9.59566 39.7282 9.97092C39.2211 10.3462 38.9675 10.8482 38.9675 11.4771C38.9675 12.045 39.2058 12.4862 39.6825 12.8006C40.1592 13.1151 41.1228 13.4345 42.5731 13.7591C44.0235 14.0735 45.1594 14.4538 45.9809 14.9001C46.8126 15.3362 47.4262 15.8636 47.8218 16.4823C48.2275 17.101 48.4303 17.8515 48.4303 18.7339C48.4303 20.2147 47.8167 21.4166 46.5895 22.3395C45.3623 23.2523 43.7547 23.7087 41.7668 23.7087C40.4179 23.7087 39.216 23.4653 38.1612 22.9785C37.1064 22.4917 36.2849 21.8223 35.6966 20.9703C35.1083 20.1183 34.8142 19.2005 34.8142 18.2167H38.4046C38.4553 19.0889 38.7849 19.7634 39.3935 20.2401C40.002 20.7066 40.8083 20.9399 41.8124 20.9399C42.7861 20.9399 43.5265 20.7573 44.0336 20.3922C44.5407 20.0169 44.7943 19.5301 44.7943 18.9317Z" fill="#245B51"/>
<path d="M61.6357 21.7918C60.5504 23.0698 59.0088 23.7087 57.0107 23.7087C55.2257 23.7087 53.8717 23.1864 52.9487 22.1417C52.0359 21.0971 51.5795 19.5859 51.5795 17.6081V6.94343H55.2764V17.5625C55.2764 19.6518 56.1436 20.6965 57.8779 20.6965C59.6731 20.6965 60.8851 20.0524 61.514 18.7643V6.94343H65.2108V23.4045H61.7269L61.6357 21.7918Z" fill="#245B51"/>
<path d="M77.5947 10.3208C77.1078 10.2397 76.6058 10.1991 76.0885 10.1991C74.3947 10.1991 73.2537 10.8482 72.6655 12.1465V23.4045H68.9686V6.94343H72.4981L72.5894 8.78427C73.4819 7.3542 74.7193 6.63916 76.3015 6.63916C76.8289 6.63916 77.265 6.71016 77.6099 6.85215L77.5947 10.3208Z" fill="#245B51"/>
<path d="M78.9791 15.0522C78.9791 12.4964 79.5775 10.4578 80.7743 8.9364C81.9812 7.40491 83.5786 6.63916 85.5665 6.63916C87.4429 6.63916 88.9186 7.29334 89.9937 8.60171L90.161 6.94343H93.4928V22.9024C93.4928 25.0627 92.8183 26.7667 91.4694 28.0142C90.1306 29.2617 88.3202 29.8854 86.0382 29.8854C84.8312 29.8854 83.6496 29.6319 82.4934 29.1248C81.3473 28.6278 80.4751 27.9736 79.8767 27.1622L81.6262 24.941C82.7622 26.29 84.1618 26.9644 85.8252 26.9644C87.0524 26.9644 88.021 26.6297 88.731 25.9603C89.4409 25.3011 89.7959 24.3274 89.7959 23.0393V21.9288C88.731 23.1154 87.311 23.7087 85.5361 23.7087C83.6091 23.7087 82.0319 22.943 80.8047 21.4115C79.5876 19.88 78.9791 17.7602 78.9791 15.0522ZM82.6608 15.3717C82.6608 17.0249 82.9955 18.3282 83.6649 19.2816C84.3444 20.2248 85.2826 20.6965 86.4794 20.6965C87.9703 20.6965 89.0758 20.0575 89.7959 18.7796V11.5379C89.0961 10.2904 88.0007 9.66665 86.5098 9.66665C85.2927 9.66665 84.3444 10.1484 83.6649 11.1119C82.9955 12.0755 82.6608 13.4954 82.6608 15.3717Z" fill="#245B51"/>
<path d="M104.553 23.7087C102.21 23.7087 100.308 22.9734 98.848 21.5028C97.3976 20.022 96.6724 18.0544 96.6724 15.5999V15.1435C96.6724 13.5005 96.9868 12.0349 97.6157 10.7468C98.2546 9.44859 99.1472 8.43943 100.293 7.71932C101.439 6.99921 102.717 6.63916 104.127 6.63916C106.369 6.63916 108.098 7.3542 109.315 8.78427C110.542 10.2143 111.156 12.2377 111.156 14.8545V16.3454H100.4C100.511 17.7045 100.963 18.7796 101.754 19.5707C102.555 20.3618 103.559 20.7573 104.766 20.7573C106.46 20.7573 107.839 20.0727 108.904 18.7035L110.897 20.6052C110.238 21.589 109.355 22.3547 108.25 22.9024C107.155 23.44 105.922 23.7087 104.553 23.7087ZM104.112 9.6058C103.098 9.6058 102.276 9.96078 101.647 10.6707C101.029 11.3807 100.633 12.3696 100.461 13.6374H107.504V13.3635C107.423 12.1262 107.094 11.1931 106.516 10.5643C105.937 9.92528 105.136 9.6058 104.112 9.6058Z" fill="#245B51"/>
<path d="M122.657 10.3208C122.17 10.2397 121.668 10.1991 121.151 10.1991C119.457 10.1991 118.316 10.8482 117.728 12.1465V23.4045H114.031V6.94343H117.561L117.652 8.78427C118.544 7.3542 119.782 6.63916 121.364 6.63916C121.891 6.63916 122.328 6.71016 122.672 6.85215L122.657 10.3208Z" fill="#245B51"/>
<path d="M131.025 18.1102L134.372 6.94343H138.312L131.77 25.8995C130.766 28.6684 129.062 30.0528 126.658 30.0528C126.121 30.0528 125.527 29.9615 124.878 29.7789V26.9188L125.578 26.9644C126.511 26.9644 127.211 26.792 127.678 26.4472C128.154 26.1125 128.53 25.5445 128.803 24.7433L129.336 23.3284L123.555 6.94343H127.541L131.025 18.1102Z" fill="#245B51"/>
<path d="M30.4113 15.2056C30.4113 11.1729 28.8093 7.30525 25.9577 4.45363C23.1061 1.60202 19.2384 0 15.2056 0C11.1729 0 7.30524 1.60202 4.45363 4.45363C1.60202 7.30525 0 11.1729 0 15.2056H30.4113Z" fill="#1F5B52"/>
<path d="M30.4113 17.4363C30.4113 24.9257 23.6057 30.9999 15.2056 30.9999C6.8056 30.9999 0 24.9257 0 17.4363H30.4113Z" fill="#3A9E8D"/>
<path d="M15.3009 26.235C12.5045 26.235 10.2372 25.3537 8.49892 23.5911C6.76065 21.8284 5.89151 19.4806 5.89151 16.5478V16.0029C5.85923 14.186 6.24721 12.3863 7.02517 10.7442C7.72567 9.26481 8.83142 8.01449 10.214 7.1384C11.5836 6.27397 13.1731 5.82202 14.7926 5.83652C17.4743 5.83652 19.5466 6.68981 21.0094 8.39639C22.4722 10.103 23.2036 12.519 23.2036 15.6445V17.4254H10.3384C10.47 19.0491 11.0125 20.3327 11.9657 21.2762C12.4357 21.7444 12.9963 22.1117 13.6131 22.3557C14.23 22.5996 14.8902 22.7151 15.5532 22.6951C16.5132 22.7129 17.4634 22.4991 18.3234 22.072C19.1833 21.6449 19.9278 21.017 20.4938 20.2413L22.8744 22.5123C22.0859 23.6884 20.9977 24.6327 19.7221 25.2477C18.3448 25.915 16.8312 26.253 15.3009 26.235Z" fill="white"/>
<path d="M15.7506 11.3548C15.7177 11.4206 15.6043 11.384 15.5385 11.3548C15.0536 11.2824 14.5606 11.2824 14.0757 11.3548C13.4302 11.435 12.8004 11.6113 12.207 11.8777C11.5903 12.1484 11.0153 12.5055 10.4992 12.9383C10.4114 13.0114 10.4078 13.0699 10.4992 13.1504C10.6042 13.2487 10.7153 13.3403 10.832 13.4246C11.438 13.8739 12.1405 14.1756 12.8835 14.306C13.394 14.3989 13.9155 14.4137 14.4304 14.3498C14.8335 14.2918 15.2328 14.21 15.6262 14.1048C16.4666 13.8653 17.3217 13.6809 18.1861 13.5526C18.742 13.4868 19.2832 13.4575 19.8537 13.4137C19.9707 13.4137 20.0036 13.3698 19.9744 13.2564C19.5502 11.651 18.4275 9.93955 16.8404 9.2813C16.3258 9.08641 15.7868 8.96335 15.2386 8.9156C14.3649 8.84154 13.49 9.04364 12.7372 9.4934C12.1678 9.8251 11.6645 10.259 11.2525 10.7733C11.0185 11.0659 10.81 11.384 10.5906 11.6876C10.5504 11.7388 10.5028 11.7827 10.4663 11.8375C10.4297 11.8924 10.4041 11.918 10.4187 11.9436C10.4334 11.9692 10.5065 11.9618 10.5431 11.9436C10.6104 11.9193 10.6764 11.8912 10.7405 11.8595C11.5035 11.5487 12.2946 11.3124 13.1029 11.1537C13.747 11.0144 14.4105 10.9896 15.0631 11.0805C15.2205 11.1099 15.3757 11.1502 15.5275 11.2012C15.5956 11.2216 15.6589 11.2551 15.714 11.2999C15.736 11.3219 15.7542 11.3438 15.7506 11.3548Z" fill="#1F5B52"/>
<path d="M30.4149 15.0007H0V17.4363H30.4149V15.0007Z" fill="white"/>
</svg>
