<svg width="30" height="31" viewBox="0 0 30 31" fill="none" xmlns="http://www.w3.org/2000/svg">
<path d="M11.25 28.4166C11.9404 28.4166 12.5 27.8383 12.5 27.1249C12.5 26.4116 11.9404 25.8333 11.25 25.8333C10.5596 25.8333 10 26.4116 10 27.1249C10 27.8383 10.5596 28.4166 11.25 28.4166Z" fill="#6E7C80" stroke="#6E7C80" stroke-width="2" stroke-linecap="round" stroke-linejoin="round"/>
<path d="M25 28.4166C25.6904 28.4166 26.25 27.8383 26.25 27.1249C26.25 26.4116 25.6904 25.8333 25 25.8333C24.3096 25.8333 23.75 26.4116 23.75 27.1249C23.75 27.8383 24.3096 28.4166 25 28.4166Z" fill="#6E7C80" stroke="#6E7C80" stroke-width="2" stroke-linecap="round" stroke-linejoin="round"/>
<path d="M1.25 1.29175H6.25L9.6 18.5872C9.7143 19.1818 10.0274 19.716 10.4844 20.0962C10.9415 20.4764 11.5134 20.6784 12.1 20.6667H24.25C24.8366 20.6784 25.4085 20.4764 25.8656 20.0962C26.3226 19.716 26.6357 19.1818 26.75 18.5872L28.75 7.75008H7.5" stroke="#6E7C80" stroke-width="2" stroke-linecap="round" stroke-linejoin="round"/>
</svg>
