<svg width="39" height="39" viewBox="0 0 39 39" fill="none" xmlns="http://www.w3.org/2000/svg">
<g clip-path="url(#clip0_1002_33776)">
<rect width="39" height="39" rx="19.5" fill="#DBEDEB"/>
<path d="M19.4995 21.1245C23.0894 21.1245 25.9995 18.2144 25.9995 14.6245C25.9995 11.0347 23.0894 8.12451 19.4995 8.12451C15.9097 8.12451 12.9995 11.0347 12.9995 14.6245C12.9995 18.2144 15.9097 21.1245 19.4995 21.1245Z" fill="#A0D1C8"/>
<path d="M19.5005 49.8329C27.0791 49.8329 33.2228 43.6892 33.2228 36.1106C33.2228 28.5321 27.0791 22.3884 19.5005 22.3884C11.922 22.3884 5.77832 28.5321 5.77832 36.1106C5.77832 43.6892 11.922 49.8329 19.5005 49.8329Z" fill="#A0D1C8"/>
</g>
<rect x="2" y="2" width="35" height="35" rx="17.5" stroke="#DBEDEB" stroke-width="4"/>
<defs>
<clipPath id="clip0_1002_33776">
<rect width="39" height="39" rx="19.5" fill="white"/>
</clipPath>
</defs>
</svg>
